<mxfile host="app.diagrams.net" modified="2023-06-06T14:34:00.792Z" agent="Mozilla/5.0 (Windows NT 10.0; Win64; x64) AppleWebKit/537.36 (KHTML, like Gecko) Chrome/112.0.0.0 Safari/537.36 OPR/98.0.0.0" etag="otaBYCz8yk5kN5Yb2QQB" version="21.1.1" type="github">
  <diagram name="Página-1" id="kZkRJ4Y5xZ0ikxRFt28S">
    <mxGraphModel dx="833" dy="492" grid="1" gridSize="10" guides="1" tooltips="1" connect="1" arrows="1" fold="1" page="1" pageScale="1" pageWidth="827" pageHeight="1169" math="0" shadow="0">
      <root>
        <mxCell id="0" />
        <mxCell id="1" parent="0" />
        <mxCell id="rwcHsPqlEcL446Yb8pKd-1" value="&lt;b&gt;&lt;font style=&quot;font-size: 14px;&quot;&gt;Venda&lt;/font&gt;&lt;/b&gt;" style="text;html=1;strokeColor=none;fillColor=none;align=left;verticalAlign=middle;whiteSpace=wrap;rounded=0;" vertex="1" parent="1">
          <mxGeometry x="244" y="260" width="60" height="30" as="geometry" />
        </mxCell>
        <mxCell id="rwcHsPqlEcL446Yb8pKd-2" value="Data" style="rounded=0;whiteSpace=wrap;html=1;" vertex="1" parent="1">
          <mxGeometry x="325" y="290" width="60" height="60" as="geometry" />
        </mxCell>
        <mxCell id="rwcHsPqlEcL446Yb8pKd-3" value="Cod_vendedor" style="rounded=0;whiteSpace=wrap;html=1;" vertex="1" parent="1">
          <mxGeometry x="385" y="290" width="100" height="60" as="geometry" />
        </mxCell>
        <mxCell id="rwcHsPqlEcL446Yb8pKd-4" value="CPF_cliente" style="rounded=0;whiteSpace=wrap;html=1;" vertex="1" parent="1">
          <mxGeometry x="575" y="290" width="90" height="60" as="geometry" />
        </mxCell>
        <mxCell id="rwcHsPqlEcL446Yb8pKd-5" value="Cod_veiculo" style="rounded=0;whiteSpace=wrap;html=1;" vertex="1" parent="1">
          <mxGeometry x="485" y="290" width="90" height="60" as="geometry" />
        </mxCell>
        <mxCell id="rwcHsPqlEcL446Yb8pKd-6" value="&lt;b&gt;&lt;font style=&quot;font-size: 14px;&quot;&gt;Veiculo&lt;/font&gt;&lt;/b&gt;" style="text;html=1;strokeColor=none;fillColor=none;align=left;verticalAlign=middle;whiteSpace=wrap;rounded=0;" vertex="1" parent="1">
          <mxGeometry x="244" y="80" width="60" height="30" as="geometry" />
        </mxCell>
        <mxCell id="rwcHsPqlEcL446Yb8pKd-12" style="edgeStyle=orthogonalEdgeStyle;rounded=0;orthogonalLoop=1;jettySize=auto;html=1;exitX=0.5;exitY=1;exitDx=0;exitDy=0;entryX=0.5;entryY=0;entryDx=0;entryDy=0;" edge="1" parent="1" source="rwcHsPqlEcL446Yb8pKd-7" target="rwcHsPqlEcL446Yb8pKd-5">
          <mxGeometry relative="1" as="geometry" />
        </mxCell>
        <mxCell id="rwcHsPqlEcL446Yb8pKd-7" value="&lt;u&gt;Cod_veiculo&lt;/u&gt;" style="rounded=0;whiteSpace=wrap;html=1;" vertex="1" parent="1">
          <mxGeometry x="244" y="110" width="90" height="60" as="geometry" />
        </mxCell>
        <mxCell id="rwcHsPqlEcL446Yb8pKd-8" value="Modelo" style="rounded=0;whiteSpace=wrap;html=1;" vertex="1" parent="1">
          <mxGeometry x="334" y="110" width="70" height="60" as="geometry" />
        </mxCell>
        <mxCell id="rwcHsPqlEcL446Yb8pKd-9" value="Preço" style="rounded=0;whiteSpace=wrap;html=1;" vertex="1" parent="1">
          <mxGeometry x="404" y="110" width="60" height="60" as="geometry" />
        </mxCell>
        <mxCell id="rwcHsPqlEcL446Yb8pKd-11" value="&lt;u&gt;Cod_venda&lt;/u&gt;" style="rounded=0;whiteSpace=wrap;html=1;" vertex="1" parent="1">
          <mxGeometry x="245" y="290" width="80" height="60" as="geometry" />
        </mxCell>
      </root>
    </mxGraphModel>
  </diagram>
</mxfile>
